<svg width="1440" height="479" viewBox="0 0 1440 479" fill="none" xmlns="http://www.w3.org/2000/svg">
<path d="M-138.511 17.0934C-39.1079 190.198 47.1083 236.716 120.138 156.649C193.167 76.5815 256.799 63.6349 311.033 117.809C365.268 171.983 420.738 217.334 477.443 253.862C534.148 290.391 594.165 303.268 657.492 292.495C720.82 281.722 781.446 290.244 839.371 318.063C897.295 345.881 960.222 337.973 1028.15 294.339C1096.08 250.704 1162 221.397 1225.92 206.416C1289.83 191.435 1345.63 234.47 1393.3 335.52C1440.97 436.571 1465.58 481.554 1467.14 470.47" stroke="#BABABA" stroke-width="1.13921"/>
<path d="M-140.141 28.7383C-22.8014 73.7274 66.8227 95.9043 128.731 95.269C190.639 94.6337 250.409 109.276 308.039 139.196C365.669 169.115 424.757 188.63 485.301 197.739C545.845 206.848 602.67 242.521 655.775 304.758C708.881 366.995 771.572 360.766 843.85 286.071C916.127 211.375 978.587 206.799 1031.23 272.343C1083.87 337.886 1142.08 363.655 1205.86 349.649C1269.64 335.643 1330.44 342.925 1388.26 371.496C1446.08 400.066 1479.52 382.033 1488.57 317.397" stroke="#BABABA" stroke-width="1.13921"/>
<path d="M-137.28 8.2998C-19.603 50.883 68.5305 83.7064 127.121 106.77C185.711 129.834 243.397 159.354 300.18 195.331C356.962 231.307 413.729 267.394 470.481 303.591C527.232 339.788 586.919 355.02 649.541 349.286C712.163 343.553 775.969 329.363 840.959 306.718C905.949 284.073 966.507 293.077 1022.64 333.731C1078.76 374.385 1141.3 369.238 1210.25 318.29C1279.21 267.342 1342.39 257.634 1399.79 289.166C1457.2 320.698 1486.34 333.324 1487.22 327.043" stroke="#BABABA" stroke-width="1.13921"/>
<path d="M-136.258 1C-33.724 151.743 48.8699 224.133 111.524 218.171C174.178 212.21 235.454 216.091 295.352 229.817C355.249 243.542 413.069 272.11 468.811 315.52C524.552 358.93 585.92 362.153 652.915 325.191C719.909 288.229 783.157 278.024 842.659 294.576C902.161 311.128 959.489 343.207 1014.64 390.813C1069.8 438.418 1133.47 425.198 1205.65 351.151C1277.84 277.104 1340.55 270.713 1393.8 331.979C1447.04 393.245 1476.79 401.486 1483.06 356.702" stroke="#BABABA" stroke-width="1.13921"/>
</svg>
