<svg width="1240" height="223" viewBox="0 0 1240 223" fill="none" xmlns="http://www.w3.org/2000/svg">
<g clip-path="url(#clip0_2667_4060)">
<rect width="1240" height="223" rx="20" fill="#212121"/>
<g opacity="0.4">
<ellipse cx="965.079" cy="27.7863" rx="103.079" ry="80.7863" fill="white" fill-opacity="0.1"/>
<ellipse cx="1178.6" cy="195.127" rx="103.079" ry="80.7863" fill="white" fill-opacity="0.1"/>
<path d="M976.862 108.577L973.549 108.288L979.439 107.134L986.802 105.98L1008.15 99.6328L1021.78 94.1508L1038.34 83.4755L1050.86 71.6461L1058.59 58.0855L1061.53 52.3151L1063.74 50.0069L1063.38 44.525L1066.32 35.8693L1067.42 34.1382L1067.79 35.0038L1068.16 37.0234L1068.9 41.6398L1070 45.9676L1071.11 49.4299L1071.84 51.4495L1072.21 52.6036V53.1807L1072.95 54.6233L1074.05 57.5085L1077.36 63.5675L1081.78 70.492L1084.73 74.5313L1088.78 79.1477L1097.24 86.9378L1102.4 90.9771L1109.39 95.882L1116.02 99.6328L1124.12 103.672L1133.69 107.423L1140.32 109.443L1146.57 111.174L1148.42 111.751L1150.99 112.328L1157.62 113.193L1163.88 114.059L1168.66 114.347L1171.61 114.924L1159.46 116.367L1143.63 120.118L1133.32 123.292L1119.33 130.216L1109.39 137.141L1103.87 141.468L1098.72 146.085L1094.3 150.413L1090.25 155.606L1088.41 158.78L1086.2 162.819L1082.52 170.609L1079.94 176.091L1077 183.593L1075.89 187.921L1074.79 181.573L1074.05 178.976L1073.31 176.091L1072.58 173.783L1071.84 171.475L1071.47 170.321L1070.74 168.878L1070.37 167.436L1068.53 163.973L1067.06 160.799L1065.22 157.914L1063.74 155.318L1061.17 151.855L1059.33 149.259L1057.12 146.662L1056.38 145.796L1055.28 144.642L1054.17 143.2L1052.7 141.757L1050.12 139.449L1045.34 135.121L1042.02 132.524L1038.71 130.216L1033.56 126.754L1029.51 124.446L1023.62 121.272L1016.25 118.098L1010.36 115.79L1001.53 112.905L1000.42 112.616L996.374 111.751L992.692 110.885L990.115 110.308L985.697 109.731L982.384 109.154L978.703 108.865L976.862 108.577Z" fill="white" fill-opacity="0.1"/>
<ellipse cx="1193.33" cy="16.2454" rx="88.3537" ry="69.2454" fill="white" fill-opacity="0.1"/>
<ellipse cx="950.354" cy="206.67" rx="88.3537" ry="69.2454" fill="white" fill-opacity="0.1"/>
</g>
</g>
<defs>
<clipPath id="clip0_2667_4060">
<rect width="1240" height="223" rx="20" fill="white"/>
</clipPath>
</defs>
</svg>
