<svg width="1240" height="391" viewBox="0 0 1240 391" fill="none" xmlns="http://www.w3.org/2000/svg">
<g clip-path="url(#clip0_2620_1867)">
<rect width="1240" height="391" rx="20" fill="#212121"/>
<g opacity="0.4">
<ellipse cx="888.105" cy="57.1051" rx="134.105" ry="134.105" fill="white" fill-opacity="0.1"/>
<ellipse cx="1165.9" cy="334.89" rx="134.105" ry="134.105" fill="white" fill-opacity="0.1"/>
<path d="M903.435 191.217L899.125 190.738L906.788 188.822L916.367 186.907L944.146 176.37L961.867 167.27L983.419 149.549L999.703 129.912L1009.76 107.402L1013.59 97.8226L1016.47 93.991L1015.99 84.891L1019.82 70.5226L1021.26 67.6489L1021.73 69.0858L1022.21 72.4384L1023.17 80.1015L1024.61 87.2857L1026.05 93.0331L1027 96.3857L1027.48 98.3015V99.2594L1028.44 101.654L1029.88 106.444L1034.19 116.501L1039.93 127.996L1043.77 134.701L1049.03 142.365L1060.05 155.296L1066.76 162.001L1075.86 170.144L1084.48 176.37L1095.01 183.075L1107.47 189.301L1116.09 192.654L1124.23 195.528L1126.62 196.486L1129.98 197.443L1138.6 198.88L1146.74 200.317L1152.97 200.796L1156.8 201.754L1140.99 204.149L1120.4 210.375L1106.99 215.643L1088.79 227.138L1075.86 238.633L1068.67 245.817L1061.97 253.48L1056.22 260.664L1050.95 269.286L1048.56 274.554L1045.68 281.259L1040.89 294.191L1037.54 303.291L1033.71 315.743L1032.27 322.928L1030.83 312.391L1029.88 308.08L1028.92 303.291L1027.96 299.459L1027 295.628L1026.52 293.712L1025.57 291.317L1025.09 288.922L1022.69 283.175L1020.78 277.907L1018.38 273.117L1016.47 268.807L1013.11 263.059L1010.72 258.749L1007.85 254.438L1006.89 253.001L1005.45 251.086L1004.01 248.691L1002.1 246.296L998.745 242.464L992.519 235.28L988.209 230.97L983.898 227.138L977.193 221.391L971.924 217.559L964.261 212.291L954.682 207.022L947.019 203.191L935.524 198.401L934.088 197.922L928.819 196.486L924.03 195.049L920.677 194.091L914.93 193.133L910.619 192.175L905.83 191.696L903.435 191.217Z" fill="white" fill-opacity="0.1"/>
<circle cx="1185.05" cy="37.9472" r="114.947" fill="white" fill-opacity="0.1"/>
<circle cx="868.947" cy="354.052" r="114.947" fill="white" fill-opacity="0.1"/>
</g>
</g>
<defs>
<clipPath id="clip0_2620_1867">
<rect width="1240" height="391" rx="20" fill="white"/>
</clipPath>
</defs>
</svg>
