<svg xmlns="http://www.w3.org/2000/svg" version="1.1" xmlns:xlink="http://www.w3.org/1999/xlink" xmlns:svgjs="http://svgjs.com/svgjs" width="310" height="310"><svg width="310" height="310" viewBox="0 0 310 310" fill="none" xmlns="http://www.w3.org/2000/svg">
<rect width="310" height="310" fill="#212121"></rect>
<ellipse cx="124.474" cy="124.474" rx="29.4736" ry="29.4736" fill="white"></ellipse>
<ellipse cx="185.526" cy="185.526" rx="29.4736" ry="29.4736" fill="white"></ellipse>
<path d="M127.843 153.949L126.896 153.844L128.58 153.423L130.685 153.002L136.79 150.686L140.685 148.686L145.422 144.791L149.001 140.475L151.211 135.528L152.053 133.423L152.685 132.58L152.58 130.58L153.422 127.423L153.738 126.791L153.843 127.107L153.948 127.844L154.159 129.528L154.474 131.107L154.79 132.37L155.001 133.107L155.106 133.528V133.738L155.317 134.265L155.632 135.317L156.58 137.528L157.843 140.054L158.685 141.528L159.843 143.212L162.264 146.054L163.738 147.528L165.738 149.317L167.632 150.686L169.948 152.159L172.685 153.528L174.58 154.265L176.369 154.896L176.895 155.107L177.632 155.317L179.527 155.633L181.316 155.949L182.685 156.054L183.527 156.265L180.053 156.791L175.527 158.159L172.58 159.317L168.58 161.844L165.738 164.37L164.159 165.949L162.685 167.633L161.422 169.212L160.264 171.107L159.738 172.265L159.106 173.738L158.053 176.58L157.317 178.58L156.474 181.317L156.159 182.896L155.843 180.58L155.632 179.633L155.422 178.58L155.211 177.738L155.001 176.896L154.895 176.475L154.685 175.949L154.58 175.423L154.053 174.159L153.632 173.001L153.106 171.949L152.685 171.001L151.948 169.738L151.422 168.791L150.79 167.844L150.58 167.528L150.264 167.107L149.948 166.58L149.527 166.054L148.79 165.212L147.422 163.633L146.474 162.686L145.527 161.844L144.053 160.58L142.895 159.738L141.211 158.58L139.106 157.423L137.422 156.58L134.895 155.528L134.58 155.423L133.422 155.107L132.369 154.791L131.632 154.58L130.369 154.37L129.422 154.159L128.369 154.054L127.843 153.949Z" fill="white"></path>
<circle cx="189.737" cy="120.263" r="25.2631" fill="white"></circle>
<circle cx="120.263" cy="189.737" r="25.2631" fill="white"></circle>
</svg><style>@media (prefers-color-scheme: light) { :root { filter: contrast(1) brightness(1); } }
@media (prefers-color-scheme: dark) { :root { filter: invert(100%); } }
</style></svg>