<svg width="1440" height="735" viewBox="0 0 1440 735" fill="none" xmlns="http://www.w3.org/2000/svg">
<path d="M-49.8445 16.5048C19.7823 203.583 97.1888 263.628 182.375 196.64C267.561 129.653 332.455 127.331 377.057 189.676C421.66 252.021 468.929 305.866 518.866 351.21C568.802 396.554 625.889 419.113 690.126 418.885C754.364 418.658 812.767 437.02 865.337 473.974C917.907 510.927 981.278 513.46 1055.45 481.573C1129.62 449.686 1199.46 431.601 1264.97 427.32C1330.48 423.039 1378.45 474.652 1408.88 582.159C1439.31 689.667 1456.2 738.081 1459.55 727.401" stroke="#BABABA" stroke-width="1.13921"/>
<path d="M-53.3652 27.7239C54.9937 91.3715 139.759 127.965 200.931 137.505C262.104 147.045 318.657 171.303 370.592 210.281C422.526 249.258 477.607 278.211 535.833 297.139C594.059 316.066 644.254 360.587 686.419 430.7C728.583 500.813 791.446 504.964 875.009 443.152C958.571 381.339 1020.93 387.082 1062.1 460.381C1103.26 533.679 1156.45 568.658 1221.67 565.316C1286.88 561.974 1345.66 579.142 1398 616.819C1450.35 654.497 1486.29 642.199 1505.83 579.926" stroke="#BABABA" stroke-width="1.13921"/>
<path d="M-47.186 8.03271C61.9003 69.3624 143.447 116.213 197.455 148.585C251.462 180.957 303.517 219.55 353.621 264.363C403.724 309.176 453.795 354.095 503.832 399.12C553.868 444.146 610.244 468.972 672.957 473.6C735.671 478.228 800.94 474.709 868.767 463.044C936.593 451.378 994.851 470.205 1043.54 519.525C1092.23 568.844 1154.77 574.037 1231.15 535.104C1307.53 496.17 1371.45 496.969 1422.89 537.5C1474.34 578.031 1501.01 595.271 1502.91 589.22" stroke="#BABABA" stroke-width="1.13921"/>
<path d="M-44.9792 1C31.408 166.534 100.993 251.505 163.775 255.913C226.558 260.321 286.364 274.213 343.195 297.588C400.025 320.964 452.369 358.638 500.225 410.613C548.081 462.587 608.087 475.845 680.242 450.386C752.396 424.927 816.461 425.247 872.437 451.346C928.413 477.445 979.695 518.502 1026.28 574.519C1072.87 630.536 1137.85 627.95 1221.21 566.763C1304.58 505.575 1367.49 509.57 1409.95 578.748C1452.41 647.925 1480.41 660.94 1493.95 617.794" stroke="#BABABA" stroke-width="1.13921"/>
</svg>
