<svg width="1440" height="728" viewBox="0 0 1440 728" fill="none" xmlns="http://www.w3.org/2000/svg">
<path d="M-164.199 503.951C-0.639305 618.381 97.1739 623.838 129.241 520.321C161.308 416.804 213.401 378.037 285.52 404.018C357.64 429.999 427.127 447.469 493.981 456.429C560.836 465.388 620.634 451.532 673.375 414.86C726.117 378.189 784.616 360.132 848.872 360.689C913.127 361.246 966.724 327.339 1009.66 258.967C1052.6 190.596 1099.81 136.045 1151.3 95.3151C1202.78 54.5849 1271.58 69.8206 1357.68 141.022C1443.79 212.224 1485.19 242.478 1481.88 231.785" stroke="#BABABA" stroke-width="1.13921"/>
<path d="M-160.724 515.184C-35.3893 506.027 55.1613 488.002 110.928 461.111C166.694 434.219 227.019 422.065 291.901 424.649C356.784 427.233 418.562 419.78 477.236 402.288C535.91 384.797 602.509 392.931 677.034 426.69C751.559 460.45 805.657 428.163 839.327 329.828C872.996 231.493 927.587 200.8 1003.1 237.749C1078.61 274.697 1142.25 273.277 1194.03 233.488C1245.81 193.698 1303.94 174.445 1368.42 175.727C1432.9 177.009 1455.5 146.474 1436.21 84.1215" stroke="#BABABA" stroke-width="1.13921"/>
<path d="M-166.822 495.468C-42.2053 483.989 51.5218 476.235 114.359 472.205C177.196 468.175 241.96 470.374 308.65 478.801C375.34 487.228 442.063 495.761 508.818 504.4C575.574 513.04 636.074 501.455 690.32 469.645C744.565 437.835 796.287 397.869 845.487 349.745C894.686 301.621 953.329 284.029 1021.41 296.968C1089.5 309.907 1143.92 278.663 1184.67 203.237C1225.43 127.81 1278.49 92.1664 1343.85 96.3059C1409.22 100.445 1440.96 99.4856 1439.09 93.4267" stroke="#BABABA" stroke-width="1.13921"/>
<path d="M-169 488.426C-12.1125 581.285 93.4199 611.7 147.597 579.67C201.774 547.641 258.888 525.107 318.939 512.069C378.99 499.03 443.47 500.31 512.377 515.908C581.285 531.505 638.203 508.336 683.131 446.401C728.059 384.466 780.97 348.343 841.864 338.032C902.759 327.721 968.286 332.388 1038.45 352.033C1108.6 371.678 1160.62 332.646 1194.48 234.936C1228.34 137.227 1282.39 104.784 1356.63 137.606C1430.86 170.429 1461.3 165.239 1447.94 122.038" stroke="#BABABA" stroke-width="1.13921"/>
</svg>
