<svg width="1440" height="253" viewBox="0 0 1440 253" fill="none" xmlns="http://www.w3.org/2000/svg">
<path d="M-107 17.2501C15.4444 174.9 107.278 209.015 168.5 119.595C229.722 30.1754 290.944 8.53099 352.167 54.6619C413.389 100.793 474.611 138.015 535.833 166.328C597.056 194.641 658.278 199.073 719.5 179.623C780.722 160.173 841.944 160.207 903.167 179.726C964.389 199.244 1025.61 182.688 1086.83 130.056C1148.06 77.4244 1209.28 39.2594 1270.5 15.5609C1331.72 -8.13754 1392.94 26.7456 1454.17 120.21C1515.39 213.675 1546 254.811 1546 243.619" stroke="#BABABA" stroke-width="1.13921"/>
<path d="M-107 29.0089C15.4444 57.2939 107.278 66.8299 168.5 57.617C229.722 48.404 290.944 54.6176 352.167 76.2576C413.389 97.8977 474.611 109.031 535.833 109.657C597.056 110.284 658.278 137.733 719.5 192.006C780.722 246.279 841.944 231.418 903.167 147.422C964.389 63.4266 1025.61 50.2344 1086.83 107.846C1148.06 165.457 1209.28 182.905 1270.5 160.191C1331.72 137.478 1392.94 136.259 1454.17 156.537C1515.39 176.815 1546 154.32 1546 89.0533" stroke="#BABABA" stroke-width="1.13921"/>
<path d="M-107 8.37073C15.4444 34.2263 107.278 54.5127 168.5 69.2298C229.722 83.9469 290.944 105.183 352.167 132.94C413.389 160.696 474.611 188.563 535.833 216.542C597.056 244.521 658.278 251.329 719.5 236.968C780.722 222.607 841.944 199.708 903.167 168.27C964.389 136.833 1025.61 137.354 1086.83 169.833C1148.06 202.312 1209.28 188.543 1270.5 128.526C1331.72 68.5099 1392.94 50.1358 1454.17 73.404C1515.39 96.6723 1546 105.135 1546 98.7932" stroke="#BABABA" stroke-width="1.13921"/>
<path d="M-107 1C15.4444 136.07 107.278 196.309 168.5 181.718C229.722 167.127 290.944 162.475 352.167 167.763C413.389 173.05 474.611 193.325 535.833 228.587C597.056 263.849 658.278 258.532 719.5 212.638C780.722 166.744 841.944 147.868 903.167 156.01C964.389 164.152 1025.61 187.973 1086.83 227.471C1148.06 266.969 1209.28 245.048 1270.5 161.708C1331.72 78.3672 1392.94 63.3428 1454.17 116.635C1515.39 169.927 1546 173.962 1546 128.741" stroke="#BABABA" stroke-width="1.13921"/>
</svg>
